<?xml version="1.0" encoding="utf-8"?>
<!-- Generator: Adobe Illustrator 19.0.0, SVG Export Plug-In . SVG Version: 6.00 Build 0)  -->
<svg version="1.1" id="Laag_1" xmlns="http://www.w3.org/2000/svg" xmlns:xlink="http://www.w3.org/1999/xlink" x="0px" y="0px"
	 viewBox="0 0 485.1 256.3" style="enable-background:new 0 0 485.1 256.3;" xml:space="preserve">
<style type="text/css">
	.st0{fill:#FFFFFF;}
</style>
<path id="XMLID_555_" class="st0" d="M382.6,73.3c-1.5,2.8-2.4,4.6-3.4,6.2c-13.9,23.3-27.8,46.6-41.9,69.8
	c-2.3,3.8-2.2,6.7,0.1,10.5c16.7,27.6,33.3,55.4,49.9,83.1c0.9,1.5,1.7,3.1,3,5.4c-2.3,0.2-3.9,0.5-5.4,0.5c-11.5,0-23-0.1-34.5,0
	c-4,0.1-6.4-1.4-8.5-4.8c-9-15.4-18.3-30.6-27.4-45.9c-0.8-1.4-1.8-2.6-3.5-5c-5,11.2-14.6,19-13.1,32c0.7,6.3,0,12.7,0.2,19
	c0.1,3.4-1.2,4.8-4.7,4.8c-9.8-0.1-19.7-0.1-29.5,0c-3.7,0.1-5-1.5-5-5.1c0.1-8.5,0-17,0-25.5c0-46,0-92,0-138c0-6.9,0.1-7,7-7
	c8.5,0,17,0,25.5,0c6.5,0,6.6,0,6.6,6.8c0,17.2,0,34.3,0,51.5c0,1.8,0,3.5,0,5.3c0.4,0.1,0.9,0.2,1.3,0.3c4-6.6,7.9-13.3,11.9-19.9
	c7.6-12.9,15.3-25.8,22.8-38.8c2.2-3.8,4.8-5.4,9.2-5.3C355.9,73.5,368.5,73.3,382.6,73.3z M381.3,243.5c-1.4-2.6-2.1-4.1-3-5.4
	c-15.6-26-31-52-46.8-77.9c-2.5-4.1-2.6-7.1-0.1-11.3c12.4-20.3,24.6-40.8,36.8-61.2c1.6-2.6,3-5.4,5-8.9c-2.5-0.2-4.1-0.4-5.7-0.5
	c-6.8,0-13.7,0.3-20.5-0.1c-5.3-0.3-8.1,1.8-10.7,6.2c-11.1,19.2-22.4,38.2-33.7,57.2c-2.9,4.9-5.9,9.7-8.8,14.6
	c-0.3-0.1-0.7-0.2-1-0.4c0-1.6,0-3.2,0-4.8c0-22.3-0.1-44.6,0.1-67c0-4.3-1.2-6.1-5.7-5.8c-5.3,0.3-10.7,0.1-16,0.1
	c-7.1,0-7.2,0.1-7.2,7.3c0,43.6,0,87.3,0,130.9c0,7.2,0.1,14.3,0,21.5c-0.1,4,1.2,5.8,5.5,5.6c5.8-0.3,11.7-0.3,17.5,0
	c4.7,0.3,6.6-1.4,5.9-6c-2.5-16.9,2.5-31.7,12.7-45.1c1.4-1.8,2.3-4,3.6-6c0.6-0.9,1.4-1.6,2.4-2.8c1.2,1.8,2.1,3.2,2.9,4.5
	c10,16.7,20,33.4,30.1,50c1.2,2,3.3,4.8,5.1,4.9C359.8,243.8,370,243.5,381.3,243.5z"/>
<path id="XMLID_552_" class="st0" d="M178.5,65.4c23.3,60.7,46.6,121.3,70.2,182.8c-2.3,0.3-3.9,0.6-5.4,0.7
	c-10.3,0.1-20.7-0.1-31,0.1c-4,0.1-6.3-1.3-7.2-5.2c-0.4-1.8-0.9-3.8-2-5.1c-1.4-1.7-3.5-3.9-5.4-3.9c-13.3-0.3-26.7-0.3-40,0
	c-1.8,0-4.1,1.9-5.2,3.5c-1.4,2-1.4,4.9-2.8,6.9c-1.2,1.7-3.4,3.5-5.2,3.6c-11.2,0.3-22.3,0.2-33.5,0.2c-4.4,0-3.9-2.3-2.8-5.2
	c11.9-30.7,23.7-61.5,35.6-92.3c10.5-27.2,21-54.3,31.5-81.5c0.6-1.5,1.2-3,1.9-4.6C177.5,65.4,178,65.4,178.5,65.4z M113.8,243.7
	c8.5,0,15.5,0,22.4,0c8.4,0,8.4,0,11.4-7.8c0.2-0.5,0.4-0.9,0.5-1.4c0.8-4.1,3.4-5.1,7.3-5c14.8,0.2,29.7,0.2,44.5,0
	c4.4-0.1,6.3,1.7,7.5,5.5c3.4,10.8,3.6,8.6,12.6,8.7c6.7,0.1,13.5,0,21.4,0c-21.3-55.5-42.2-109.8-63-164.1c-0.5,0.1-1,0.1-1.5,0.2
	C156,133.9,135.2,188.2,113.8,243.7z"/>
<path id="XMLID_549_" class="st0" d="M411.6,180.8c0-20.7-0.1-41.3,0.1-62c0-4.7-1.3-6.7-6.2-6.4c-6,0.3-12,0-18,0.1
	c-3.5,0.1-4.7-1.4-4.7-4.8c0.1-10,0.1-20,0-30c0-3.1,1.3-4.5,4.5-4.5c29.1,0,58.3,0,87.4-0.1c3.2,0,4.5,1.4,4.5,4.5
	c-0.1,10.2-0.1,20.3,0,30.5c0,3.2-1.4,4.5-4.5,4.4c-6-0.1-12,0.2-18-0.1c-4.6-0.3-6,1.4-6,6c0.2,33.5,0.1,66.9,0.1,100.4
	c0,8-0.2,16,0.1,24c0.2,4.5-1.3,6.3-6,6.2c-9.2-0.3-18.3-0.2-27.5,0c-4.3,0.1-5.8-1.3-5.8-5.7C411.7,222.4,411.6,201.6,411.6,180.8z
	 M416.7,175.1c0,21,0.1,42-0.1,62.9c0,4.4,1.5,5.9,5.8,5.7c5.8-0.3,11.7-0.3,17.5,0c4.5,0.2,5.8-1.6,5.7-5.8
	c-0.2-16.3-0.1-32.6-0.1-49c0-25.3,0.1-50.6-0.1-75.9c0-4.4,1.3-5.9,5.7-5.6c6,0.3,12,0,18,0.1c3.3,0.1,5-1,4.9-4.6
	c-0.1-6.7-0.1-13.3,0-20c0.1-3.2-1.2-4.5-4.4-4.5c-25.6,0-51.3,0-76.9,0c-3.1,0-4.7,1.1-4.7,4.3c0.1,6.8,0,13.7,0,20.5
	c0,3.3,1.7,4.3,4.7,4.3c6.2-0.1,12.3,0.2,18.5-0.1c4.5-0.2,5.6,1.5,5.6,5.8C416.6,133.8,416.7,154.4,416.7,175.1z"/>
<path id="XMLID_546_" class="st0" d="M30.6,249.1c-7.3,0-14.7-0.1-22,0c-3.9,0.1-5.2-1.5-5.2-5.4c0.1-55.2,0.1-110.3,0.1-165.5
	c0-2.7,0.3-5.2,3.9-5c17.8,0.6,35.9-0.6,53.3,2.3c36.5,6,53.1,53.3,31.1,79.2c-2.5,3-2.2,5,0.5,7.5c14.5,13.7,17,30.8,11.3,48.7
	c-6.2,19.5-19.5,32.6-40.2,36.2c-10.8,1.9-21.9,1.8-32.8,2.6C30.6,249.5,30.6,249.3,30.6,249.1z M80.6,158.9c0.7-0.8,1.3-1.6,2-2.2
	c13.7-12.4,16.8-27.7,11.2-44.6C88.3,95.3,77.1,83,59.2,80.5C43.8,78.4,28,79,12.4,78.4c-3.2-0.1-3.8,1.9-3.8,4.6
	c0,52,0,104,0,155.9c0,3.4,1.1,4.8,4.6,4.8c13.2-0.1,26.3,0.3,39.5-0.2c19.1-0.7,33.7-9.4,42.8-26.5c8.6-16,6.9-36.2-4.3-48.1
	C88,165.4,84.3,162.3,80.6,158.9z"/>
<path id="XMLID_542_" class="st0" d="M223.5,32.9c0-15.1,11.8-27.2,26.7-27.4c14.9-0.2,27.4,12.3,27.4,27.4
	c0,15-12.1,26.9-27.1,26.9C235.4,59.9,223.6,48.1,223.5,32.9z M250.7,49.4c9.1-0.1,16.4-7.4,16.4-16.5c0-9.3-7.6-16.8-16.9-16.7
	c-9,0.1-16.5,7.7-16.5,16.6C233.8,42,241.4,49.5,250.7,49.4z"/>
<path id="XMLID_539_" class="st0" d="M440.8,58.7c0-16.7,0-32.8,0.1-49c0-1,1.5-2.9,2.3-2.9c7.8-0.2,15.6-1.2,23,2.7
	c10,5.3,15.7,16.4,13.8,27.6c-1.8,11-11,20.3-22.1,21.5C452.6,59.2,447.1,58.7,440.8,58.7z M451.9,48c7.6,0.8,12.7-2,16-7.9
	c3.1-5.6,2.6-11.3-1.1-16.4c-3.6-5-8.5-7-14.9-6C451.9,27.9,451.9,37.8,451.9,48z"/>
<path id="XMLID_538_" class="st0" d="M17.2,59.1c-2.9,0-5.2,0.4-7.4-0.1c-1.3-0.3-3.1-2.1-3.1-3.2C6.5,40.4,6.6,25.1,6.6,9.8
	c0-4.2,3.1-3.1,5.4-3.1c2.4-0.1,5.3-0.7,5.2,3.3c-0.1,5.6,0,11.2,0,17c4.1,0,7.4,0,11.7,0c0-5.1,0.3-10.2-0.1-15.2
	c-0.3-4.3,1.5-5.3,5.5-5.3c4,0,5.5,1.1,5.4,5.4c-0.2,14.1-0.2,28.3,0,42.4c0.1,4.4-2,4.9-5.4,4.8c-3.4,0-5.9-0.2-5.5-4.7
	c0.4-4.1-0.1-8.3,0.1-12.5c0.3-4.6-2.8-4.1-5.6-4c-2.8,0.1-6.3-1.1-6.2,4C17.3,47.4,17.2,52.8,17.2,59.1z"/>
<path id="XMLID_537_" class="st0" d="M204.3,7.1c3.8,0,6.7,0,10.1,0c0,17.2,0,34.2,0,51.5c-3.2,0-6.3,0-9.9,0
	c0-5.6-0.2-10.9,0.1-16.2c0.1-3.3-0.8-4.7-4.4-4.7c-7.8,0-7.8-0.2-7.8,7.8c0,1.8,0,3.7,0,5.5c0,8.9-0.5,9.3-10.2,7.3
	c0-16.8,0-33.7,0-50.7c0.4-0.2,0.8-0.6,1.2-0.6c8.9-1,9-1,9,7.8c0,4,0,7.9,0,12.2c4.2,0,7.8,0,12,0C204.3,20.5,204.3,14.1,204.3,7.1
	z"/>
<path id="XMLID_536_" class="st0" d="M418.2,7.6c1.3-0.5,1.7-0.8,2.2-0.8c8.2-1,8.5-0.7,8.5,7.4c0,13.2,0,26.3,0,39.5
	c0,1.6,0,3.2-1.2,5.4c-6.6-7.6-13.2-15.3-19.8-22.9c-0.4,0.1-0.7,0.3-1.1,0.4c0,7.2,0,14.4,0,22c-3.7,0-6.7,0-10.1,0
	c0-17.3,0-34.4,0-53c7.4,8.6,13.9,16.2,21.5,25C418.2,21.9,418.2,14.6,418.2,7.6z"/>
<path id="XMLID_535_" class="st0" d="M116.5,37.8c-3.8,0-7.3,0.3-10.7-0.1c-5.2-0.6-7,1.5-6.2,6.4c0.2,1.1,0.2,2.3,0.4,4.2
	c3.7,0,7.3,0.4,10.8-0.1c5.4-0.7,6.8,1.7,6.1,6.5c-0.2,1.1-0.2,2.3-0.3,4.2c-8.5,0-16.9,0.1-25.3-0.1c-0.8,0-2.3-1.9-2.3-3
	c-0.1-15.3-0.2-30.6,0-45.9c0-1.1,1.7-3,2.7-3.1c8.1-0.2,16.2-0.1,24.8-0.1c0,3.5,0,6.6,0,10.3c-5.3,0-10.7,0-16.5,0
	c0,3.6,0,6.5,0,10c5.3,0,10.7,0,16.5,0C116.5,30.8,116.5,33.8,116.5,37.8z"/>
<path id="XMLID_534_" class="st0" d="M51.5,59c0-6,0-11.3,0-16.6c0-10.5,0.1-21,0-31.4c0-3.2,0.9-4.5,4.2-4.4
	c6.8,0.2,13.6,0.1,20.5,0.1c4.5,0,3.3,3.2,3.4,5.6c0.1,2.5,0.6,5.2-3.5,5c-4.5-0.2-8.9,0-13.8,0c0,3.3,0,6.2,0,9.8
	c5.5,0,11.1,0,16.2,0c0.6,1,0.8,1.2,0.9,1.5c0.9,9.1,0.9,9.1-8.2,9.1c-3,0-5.9,0-8.9,0c-0.2,1.9-0.3,3-0.3,4.2c0,1.8,0,3.6,0,6.4
	c4.7,0,9.1,0.2,13.5-0.1c4.5-0.3,4.1,2.5,4.2,5.4c0.1,3.1,0.1,5.6-4.3,5.4C67.6,58.9,59.8,59,51.5,59z"/>
<path id="XMLID_531_" class="st0" d="M391.5,59.1c-5.2-1-10.3,2.6-13-3.8c-0.3-0.6-2.1-0.9-3.1-0.8c-5.1,0.7-11-2.5-15.2,3.8
	c-1,1.5-6.1,0.2-10.1,0.2c6.8-17.7,13.4-34.8,19.9-51.9c0.4-0.1,0.8-0.1,1.2-0.2C377.9,23.7,384.5,40.8,391.5,59.1z M365.8,46.9
	c3.6,0,6.4,0,9.8,0c-1.6-4.2-3-7.9-4.9-12.9C368.8,39.1,367.4,42.6,365.8,46.9z"/>
<path id="XMLID_530_" class="st0" d="M153.9,48.4c0.4,1.2,0.6,1.6,0.6,2.1c0.7,8.5,0.7,8.5-7.9,8.5c-5.5,0-11,0.2-16.5-0.1
	c-1.2-0.1-3.3-1.9-3.3-2.9c-0.2-16.1-0.1-32.2-0.1-48.4c1-0.3,1.5-0.7,2.2-0.8c8.4-0.8,8.4-0.8,8.4,7.5c0,9.8,0.1,19.6,0,29.4
	c0,3.4,1,4.9,4.5,4.6C145.7,48.2,149.7,48.4,153.9,48.4z"/>
<path id="XMLID_529_" class="st0" d="M349.4,58.6c-9.2,0-18,0-27.3,0c0-17.1,0-34,0-51.3c3,0,6,0,9.8,0c0,13.5,0,27,0,41.2
	c4.5,0,8.3,0.3,12.1-0.1c4.3-0.4,6.3,1,5.6,5.5C349.5,55.2,349.5,56.7,349.4,58.6z"/>
<path id="XMLID_528_" class="st0" d="M286.8,58.9c0-17.7,0-34.6,0-51.8c3.4,0,6.4,0,10,0c0,13.8,0,27.2,0,41.3c5.1,0,9.7,0,14.3,0
	c3.8,0,3.1,2.8,3,4.9c-0.1,2.2,1.3,5.5-2.9,5.6C303.3,59,295.3,58.9,286.8,58.9z"/>
<path id="XMLID_464_" class="st0" d="M178.4,158.5c6.4,16.8,12.7,33.7,19.3,51.2c-13.9,0-26.7,0-40.3,0
	c6.7-17.5,13.2-34.4,19.6-51.2C177.5,158.5,177.9,158.5,178.4,158.5z M178.2,173c-0.4,0-0.8,0-1.2,0.1c-3.7,9.7-7.5,19.4-11,29.1
	c-0.2,0.6,1.7,2.7,2.7,2.7c6,0.3,12,0.1,17.9,0.1c2.9,0,3.3-1.6,2.4-4c-1.2-3.1-2.3-6.2-3.5-9.3C183.1,185.5,180.7,179.3,178.2,173z
	"/>
<path id="XMLID_461_" class="st0" d="M37.3,194.4c0-5.2,0-10.3,0-15.5c0-2.6,1-4.2,3.8-4.1c5.5,0.4,11,0.2,16.3,1.5
	c9.6,2.2,14.6,9.2,14.6,18.8c0,9.3-5.1,15.8-14.4,18.6c-0.3,0.1-0.6,0.3-1,0.3c-6.1,0.1-12.2,0.1-18.3,0.1c-0.4-4.9-0.7-9.8-1-14.7
	C37.2,197.7,37.3,196,37.3,194.4C37.3,194.4,37.3,194.4,37.3,194.4z M42.6,195c0,2.3,0,4.7,0,7c0,7.7,0,7.7,7.8,7.4
	c1.3,0,2.7-0.1,4-0.3c8.9-1.5,13.8-8.5,12.2-17.4c-1.3-6.9-7.2-11.1-16-11.5c-7.8-0.3-7.9-0.2-7.9,7.3C42.6,190,42.6,192.5,42.6,195
	z"/>
<path id="XMLID_458_" class="st0" d="M37.3,126.8c0-5.2,0-10.3,0-15.5c0-2.7,1.1-4.1,3.9-3.9c3.3,0.2,6.7,0,9.9,0.6
	c10.5,2,16.4,8.7,16.5,18.3c0.1,9.7-5.6,16.6-15.8,19c-12.7,3-14.5,1.7-14.5-11C37.3,131.8,37.3,129.3,37.3,126.8
	C37.3,126.8,37.3,126.8,37.3,126.8z M42.6,126.6c0,3.5-0.3,7,0.2,10.5c0.2,1.3,2.2,3.3,3.5,3.5c8.8,0.9,16.1-5.6,16.2-13.8
	c0.1-8.2-7.3-14.7-16.1-14c-1.3,0.1-3.4,2.1-3.6,3.4C42.3,119.6,42.6,123.1,42.6,126.6z"/>
</svg>
